<svg width="103" height="103" viewBox="0 0 103 103" fill="none" xmlns="http://www.w3.org/2000/svg">
<path d="M87.9331 15.0671C67.8432 -5.02238 35.1564 -5.02238 15.0668 15.0671C-5.02228 35.1563 -5.02228 67.8439 15.0668 87.933C25.1116 97.9778 38.3059 103 51.5002 103C64.6945 103 77.8883 97.9778 87.9335 87.933C108.022 67.8439 108.022 35.1563 87.9331 15.0671ZM20.2716 82.7287C3.0523 65.5093 3.0523 37.4912 20.2716 20.2719C28.8815 11.6625 40.1906 7.35733 51.4998 7.35733C62.8089 7.35733 74.1185 11.6621 82.7279 20.2719C99.9472 37.4912 99.9472 65.5093 82.7279 82.7287C65.5086 99.9476 37.4909 99.9476 20.2716 82.7287Z" fill="#333435"/>
<path d="M79.6672 47.8198H55.1801V23.3327C55.1801 21.2999 53.5325 19.6524 51.4998 19.6524C49.467 19.6524 47.8195 21.2999 47.8195 23.3327V47.8198H23.3324C21.2996 47.8198 19.6521 49.4673 19.6521 51.5001C19.6521 53.5328 21.2996 55.1804 23.3324 55.1804H47.8195V79.6675C47.8195 81.7002 49.467 83.3478 51.4998 83.3478C53.5325 83.3478 55.1801 81.7002 55.1801 79.6675V55.1804H79.6672C81.6999 55.1804 83.3475 53.5328 83.3475 51.5001C83.3475 49.4673 81.6999 47.8198 79.6672 47.8198Z" fill="#333435"/>
</svg>
