<svg width="112" height="112" viewBox="0 0 112 112" fill="none" xmlns="http://www.w3.org/2000/svg">
<path d="M92.3328 56.4144C92.5008 54.8688 92.5904 53.5584 92.5904 52.472C92.5904 46.872 91.6496 46.8384 88.0208 46.8384H66.4384C68.5216 43.4112 69.72 39.8608 69.72 36.2656C69.72 25.4352 53.3456 20.1488 53.3456 11.1104C53.3456 7.76159 54.8016 5.01759 56 1.1312C48.4288 3.13599 42.448 10.7072 42.448 18.7376C42.448 32.5472 58.5424 32.6592 58.5424 42.9744C58.5424 44.2624 58.1392 45.4048 57.9376 46.8384H41.9664C42.1904 45.976 42.336 45.0688 42.336 44.184C42.336 37.6656 31.1584 34.496 31.1584 29.0864C31.1584 27.0816 31.4496 25.424 32.0768 23.0832C28.392 24.5392 23.9904 28.7952 23.9904 33.6C23.9904 41.2272 33.1072 41.9776 34.5072 46.8384H5.68959C2.06079 46.8384 1.12 46.872 1.12 52.472C1.12 58.072 3.32639 69.9888 9.20639 84.2016C15.0976 98.4032 21.896 104.664 26.7008 108.842L26.7344 108.786C28.1904 110.096 30.1056 110.869 32.2224 110.869H61.488C63.6048 110.869 65.52 110.096 66.976 108.786L67.0096 108.842C69.5856 106.613 72.7216 103.757 75.9808 99.4336C77.3248 100.005 78.7808 100.486 80.3824 100.867C82.7792 101.438 85.1872 101.73 87.472 101.73C94.3376 101.73 100.509 99.0976 104.854 94.36C108.674 90.1712 110.88 84.5152 110.88 78.848C110.88 67.7376 102.872 58.4416 92.3328 56.4144ZM87.472 92.6576C85.0192 92.6576 83.0144 92.3104 81.1552 91.4592C82.2976 89.1744 83.4176 86.912 84.504 84.28C87.3936 77.3024 89.3872 70.8512 90.6752 65.4752C96.9584 66.7072 101.741 72.2736 101.741 78.9376C101.73 85.4224 96.8128 92.6576 87.472 92.6576Z" fill="white"/>
</svg>
