<svg width="110" height="110" viewBox="0 0 110 110" fill="none" xmlns="http://www.w3.org/2000/svg">
<path d="M91.2128 55.2832C91.3808 53.7376 91.4704 52.4272 91.4704 51.3408C91.4704 45.7408 90.5296 45.7072 86.9008 45.7072H65.3184C67.4016 42.28 68.6 38.7296 68.6 35.1344C68.6 24.304 52.2256 19.0176 52.2256 9.9792C52.2256 6.6304 53.6816 3.8864 54.88 0C47.3088 2.0048 41.328 9.576 41.328 17.6064C41.328 31.416 57.4224 31.528 57.4224 41.8432C57.4224 43.1312 57.0192 44.2736 56.8176 45.7072H40.8464C41.0704 44.8448 41.216 43.9376 41.216 43.0528C41.216 36.5344 30.0384 33.3648 30.0384 27.9552C30.0384 25.9504 30.3296 24.2928 30.9568 21.952C27.272 23.408 22.8704 27.664 22.8704 32.4688C22.8704 40.096 31.9872 40.8464 33.3872 45.7072H4.5696C0.9408 45.7072 0 45.7408 0 51.3408C0 56.9408 2.2064 68.8576 8.0864 83.0704C13.9776 97.272 20.776 103.533 25.5808 107.71L25.6144 107.654C27.0704 108.965 28.9856 109.738 31.1024 109.738H60.368C62.4848 109.738 64.4 108.965 65.856 107.654L65.8896 107.71C68.4656 105.482 71.6016 102.626 74.8608 98.3024C76.2048 98.8736 77.6608 99.3552 79.2624 99.736C81.6592 100.307 84.0672 100.598 86.352 100.598C93.2176 100.598 99.3888 97.9664 103.734 93.2288C107.554 89.04 109.76 83.384 109.76 77.7168C109.76 66.6064 101.752 57.3104 91.2128 55.2832ZM86.352 91.5264C83.8992 91.5264 81.8944 91.1792 80.0352 90.328C81.1776 88.0432 82.2976 85.7808 83.384 83.1488C86.2736 76.1712 88.2672 69.72 89.5552 64.344C95.8384 65.576 100.621 71.1424 100.621 77.8064C100.61 84.2912 95.6928 91.5264 86.352 91.5264Z" fill="#333435"/>
</svg>
