<svg width="116" height="116" viewBox="0 0 116 116" fill="none" xmlns="http://www.w3.org/2000/svg">
<rect x="2" y="2" width="112" height="112" stroke="white" stroke-width="4"/>
<path d="M93.2741 101H22.7266C18.4644 101 15 97.5356 15 93.2734L15.2625 87.0795C21.698 73.5263 31.6712 70.6446 32.0911 70.5238L32.805 70.4292H37.8441C41.9174 70.4292 45.2348 67.1118 45.2348 63.0386V60.6423C43.2402 58.0807 41.7598 55.3065 40.8204 52.3802L40.6314 51.7765C37.5608 48.9867 36.7943 44.4592 38.7365 40.9372C38.7891 40.8191 38.9307 40.5882 39.0935 40.3466L39.0777 37.457C39.0725 35.5175 39.0725 33.5831 39.0987 31.6489C39.2509 27.9719 40.2483 24.7281 41.9804 22.1927C44.0276 19.13 47.45 16.7967 51.3553 15.8099C55.1766 14.8388 59.3811 14.739 63.486 15.5211C67.1603 16.2219 70.3097 17.8596 72.5826 20.2611C75.2701 23.1008 76.808 27.2555 76.913 31.9612C76.9288 34.0766 76.9236 36.1553 76.9236 38.2339L76.9184 40.3651C76.9972 40.478 77.0549 40.5803 77.1125 40.6827C79.144 43.9214 78.6085 48.5773 75.8002 51.3856L75.3593 51.7924C74.2569 55.283 72.7295 58.2227 70.7663 60.7501V63.0387C70.7663 67.112 74.0837 70.4294 78.157 70.4294L83.91 70.524C84.3299 70.6448 94.3031 73.5264 100.739 87.0796L101.001 88.2344V93.2735C101.001 97.5356 97.5364 101 93.2741 101ZM20.375 88.8484V93.2734C20.375 94.5699 21.4301 95.625 22.7266 95.625H93.2741C94.5707 95.625 95.6257 94.5699 95.6257 93.2734V88.8484C90.8334 79.1639 84.2299 76.3294 82.7708 75.8045H78.1568C71.1179 75.8045 65.3911 70.0777 65.3911 63.0387V58.8158L66.021 58.0651C67.9368 55.7923 69.3856 53.0522 70.3304 49.9265C70.4984 48.8871 71.3854 48.1235 71.8107 47.7586C73.0495 46.533 73.2647 44.6616 72.4826 43.4072C72.1099 42.8692 71.4852 41.9978 71.5482 40.759V38.2263C71.5482 36.1635 71.5534 34.1005 71.5376 32.0403C71.464 28.7098 70.4458 25.8254 68.6769 23.9567C66.7925 21.9648 64.2677 21.1406 62.4778 20.8021C59.1342 20.1591 55.7432 20.2404 52.6725 21.02C50.0374 21.6866 47.7646 23.2088 46.4314 25.2009C45.2556 26.9278 44.5838 29.2033 44.4682 31.8016C44.4472 33.6335 44.4472 35.539 44.4524 37.4469V40.7355C44.5994 41.8221 43.9169 42.8168 43.5864 43.2943C42.6993 44.8848 43.0562 46.8375 44.2268 47.7981C45.2766 48.5172 45.6494 49.7718 45.8487 50.4463C46.7568 53.3018 48.1216 55.7374 49.985 57.9709L50.6097 58.7216V63.0389C50.6097 70.0778 44.8829 75.8046 37.844 75.8046H33.23C31.755 76.3346 25.1622 79.1639 20.375 88.8484Z" fill="white"/>
</svg>
