<svg width="87" height="86" viewBox="0 0 87 86" fill="none" xmlns="http://www.w3.org/2000/svg">
<path d="M78.2741 86H7.72663C3.46439 86 0 82.5356 0 78.2734L0.262538 72.0795C6.69798 58.5263 16.6712 55.6446 17.0911 55.5238L17.805 55.4292H22.8441C26.9174 55.4292 30.2348 52.1118 30.2348 48.0386V45.6423C28.2402 43.0807 26.7598 40.3065 25.8204 37.3802L25.6314 36.7765C22.5608 33.9867 21.7943 29.4592 23.7365 25.9372C23.7891 25.8191 23.9307 25.5882 24.0935 25.3466L24.0777 22.457C24.0725 20.5175 24.0725 18.5831 24.0987 16.6489C24.2509 12.9719 25.2483 9.72807 26.9804 7.19273C29.0276 4.12996 32.45 1.79668 36.3553 0.809855C40.1766 -0.161181 44.3811 -0.260955 48.486 0.521114C52.1603 1.22189 55.3097 2.8596 57.5826 5.26107C60.2701 8.10077 61.808 12.2555 61.913 16.9612C61.9288 19.0766 61.9236 21.1553 61.9236 23.2339L61.9184 25.3651C61.9972 25.478 62.0549 25.5803 62.1125 25.6827C64.144 28.9214 63.6085 33.5773 60.8002 36.3856L60.3593 36.7924C59.2569 40.283 57.7295 43.2227 55.7663 45.7501V48.0387C55.7663 52.112 59.0837 55.4294 63.157 55.4294L68.91 55.524C69.3299 55.6448 79.3031 58.5264 85.7386 72.0796L86.0011 73.2344V78.2735C86.0008 82.5356 82.5364 86 78.2741 86ZM5.37505 73.8484V78.2734C5.37505 79.5699 6.43007 80.625 7.72663 80.625H78.2741C79.5707 80.625 80.6257 79.5699 80.6257 78.2734V73.8484C75.8334 64.1639 69.2299 61.3294 67.7708 60.8045H63.1568C56.1179 60.8045 50.3911 55.0777 50.3911 48.0387V43.8158L51.021 43.0651C52.9368 40.7923 54.3856 38.0522 55.3304 34.9265C55.4984 33.8871 56.3854 33.1235 56.8107 32.7586C58.0495 31.533 58.2647 29.6616 57.4826 28.4072C57.1099 27.8692 56.4852 26.9978 56.5482 25.759V23.2263C56.5482 21.1635 56.5534 19.1005 56.5376 17.0403C56.464 13.7098 55.4458 10.8254 53.6769 8.95675C51.7925 6.96479 49.2677 6.14056 47.4778 5.8021C44.1342 5.15911 40.7432 5.24041 37.6725 6.01996C35.0374 6.68663 32.7646 8.20878 31.4314 10.2009C30.2556 11.9278 29.5838 14.2033 29.4682 16.8016C29.4472 18.6335 29.4472 20.539 29.4524 22.4469V25.7355C29.5994 26.8221 28.9169 27.8168 28.5864 28.2943C27.6993 29.8848 28.0562 31.8375 29.2268 32.7981C30.2766 33.5172 30.6494 34.7718 30.8487 35.4463C31.7568 38.3018 33.1216 40.7374 34.985 42.9709L35.6097 43.7216V48.0389C35.6097 55.0778 29.8829 60.8046 22.844 60.8046H18.23C16.755 61.3346 10.1622 64.1639 5.37505 73.8484Z" fill="#333435"/>
</svg>
